<svg width="1024" height="1024" viewBox="0 0 1024 1024" fill="none" xmlns="http://www.w3.org/2000/svg">
<path d="M93.8665 271.36L512 510.293V991.573L93.8665 752.64V271.36Z" fill="#CCCCCC"/>
<path d="M512 991.573L930.133 752.64V271.36L512 510.293V991.573Z" fill="#DDDDDD"/>
<path d="M512 510.293L93.8665 271.36L512 32.4266L930.133 271.36L512 510.293Z" fill="#EEEEEE"/>
<path d="M93.8665 675.84L512 914.773V991.573L93.8665 752.64V675.84Z" fill="#FA5B3E"/>
<path d="M512 991.573L580.267 952.32V471.04L512 510.293V991.573Z" fill="#FA5B3E"/>
<path fillRule="evenodd" clipRule="evenodd" d="M93.8665 271.36L512 510.293L580.267 471.284L230.4 271.36L520.533 109.227L867.2 307.322L930.133 271.36L512 32.4266L93.8665 271.36Z" fill="#FA5B3E"/>
</svg>
