<svg width="1542" height="600" viewBox="0 0 1542 600" fill="none" xmlns="http://www.w3.org/2000/svg">
<path d="M55 159L300 299V581L55 441V159Z" fill="#CCCCCC"/>
<path d="M300 581L545 441V159L300 299V581Z" fill="#DDDDDD"/>
<path d="M300 299L55 159L300 19L545 159L300 299Z" fill="#EEEEEE"/>
<path d="M55 396L300 536V581L55 441V396Z" fill="#FA5B3E"/>
<path d="M300 581L340 558V276L300 299V581Z" fill="#FA5B3E"/>
<path fillRule="evenodd" clipRule="evenodd" d="M55 159L300 299L340 276.143L135 159L305 64L508.125 180.071L545 159L300 19L55 159Z" fill="#FA5B3E"/>
<path d="M1065.2 295.6L1042.8 339.6C978.8 326.8 931.6 291.2 908 244.4C884.4 291.2 837.6 327.2 773.6 339.6L751.2 295.6C834 281.2 880 222.8 880 170V143.6H936.4V170C936.4 224 982 281.2 1065.2 295.6ZM743.2 402.8H1076.8V445.6H743.2V402.8ZM1351.97 189.6V168.8H1151.97V128.8H1403.97V226.8H1204.77V248H1411.17V287.6H1152.77V189.6H1351.97ZM1354.37 444.8V413.6H1205.17V444.8H1354.37ZM1444.77 348H1304.37V372H1405.97V486H1153.17V372H1251.57V348H1111.17V306.4H1444.77V348Z" fill="#333333"/>
</svg>
