<svg width="2288" height="600" viewBox="0 0 2288 600" fill="none" xmlns="http://www.w3.org/2000/svg">
<path d="M55 159L300 299V581L55 441V159Z" fill="#CCCCCC"/>
<path d="M300 581L545 441V159L300 299V581Z" fill="#DDDDDD"/>
<path d="M300 299L55 159L300 19L545 159L300 299Z" fill="#EEEEEE"/>
<path d="M55 396L300 536V581L55 441V396Z" fill="#FA5B3E"/>
<path d="M300 581L340 558V276L300 299V581Z" fill="#FA5B3E"/>
<path fill-rule="evenodd" clip-rule="evenodd" d="M55 159L300 299L340 276.143L135 159L305 64L508.125 180.071L545 159L300 19L55 159Z" fill="#FA5B3E"/>
<path d="M930.4 376.8C930.4 393.6 926.267 408.267 918 420.8C909.733 433.333 897.733 443.067 882 450C866.533 456.667 847.6 460 825.2 460C815.333 460 805.6 459.333 796 458C786.667 456.667 777.6 454.8 768.8 452.4C760.267 449.733 752.133 446.533 744.4 442.8V386.4C758 392.267 772 397.733 786.4 402.8C801.067 407.6 815.6 410 830 410C839.867 410 847.733 408.667 853.6 406C859.733 403.333 864.133 399.733 866.8 395.2C869.733 390.667 871.2 385.467 871.2 379.6C871.2 372.4 868.667 366.267 863.6 361.2C858.8 356.133 852.267 351.467 844 347.2C835.733 342.667 826.267 337.867 815.6 332.8C808.933 329.6 801.733 325.867 794 321.6C786.267 317.067 778.8 311.6 771.6 305.2C764.667 298.533 758.933 290.533 754.4 281.2C749.867 271.867 747.6 260.667 747.6 247.6C747.6 230.533 751.467 216 759.2 204C767.2 191.733 778.4 182.4 792.8 176C807.467 169.6 824.667 166.4 844.4 166.4C859.333 166.4 873.467 168.133 886.8 171.6C900.4 175.067 914.533 180 929.2 186.4L909.6 233.6C896.533 228.267 884.8 224.133 874.4 221.2C864 218.267 853.333 216.8 842.4 216.8C834.933 216.8 828.533 218 823.2 220.4C817.867 222.8 813.733 226.133 810.8 230.4C808.133 234.667 806.8 239.733 806.8 245.6C806.8 252.267 808.8 258 812.8 262.8C816.8 267.333 822.8 271.733 830.8 276C838.8 280.267 848.8 285.333 860.8 291.2C875.467 298.133 887.867 305.333 898 312.8C908.4 320.267 916.4 329.067 922 339.2C927.6 349.333 930.4 361.867 930.4 376.8ZM1065.51 170.4C1091.38 170.4 1112.71 173.6 1129.51 180C1146.31 186.133 1158.85 195.6 1167.11 208.4C1175.38 220.933 1179.51 236.8 1179.51 256C1179.51 269.067 1176.98 280.533 1171.91 290.4C1167.11 300 1160.58 308.267 1152.31 315.2C1144.31 321.867 1135.65 327.333 1126.31 331.6L1210.31 456H1143.11L1075.11 346.4H1042.71V456H982.313V170.4H1065.51ZM1061.11 220H1042.71V297.2H1062.31C1075.65 297.2 1086.45 295.733 1094.71 292.8C1102.98 289.867 1108.98 285.467 1112.71 279.6C1116.45 273.467 1118.31 266.133 1118.31 257.6C1118.31 248.533 1116.18 241.333 1111.91 236C1107.91 230.4 1101.65 226.4 1093.11 224C1084.85 221.333 1074.18 220 1061.11 220ZM1505.58 312.8C1505.58 334.933 1502.78 355.067 1497.18 373.2C1491.84 391.067 1483.58 406.533 1472.38 419.6C1461.44 432.667 1447.31 442.667 1429.98 449.6C1412.91 456.533 1392.78 460 1369.58 460C1346.38 460 1326.11 456.533 1308.78 449.6C1291.71 442.4 1277.58 432.4 1266.38 419.6C1255.44 406.533 1247.18 390.933 1241.58 372.8C1236.24 354.667 1233.58 334.533 1233.58 312.4C1233.58 282.8 1238.38 257.067 1247.98 235.2C1257.84 213.333 1272.78 196.4 1292.78 184.4C1313.04 172.133 1338.78 166 1369.98 166C1400.91 166 1426.38 172.133 1446.38 184.4C1466.38 196.4 1481.18 213.467 1490.78 235.6C1500.64 257.467 1505.58 283.2 1505.58 312.8ZM1297.18 312.8C1297.18 332.8 1299.71 350 1304.78 364.4C1309.84 378.8 1317.71 389.867 1328.38 397.6C1339.04 405.333 1352.78 409.2 1369.58 409.2C1386.91 409.2 1400.78 405.333 1411.18 397.6C1421.84 389.867 1429.58 378.8 1434.38 364.4C1439.44 350 1441.98 332.8 1441.98 312.8C1441.98 282.667 1436.38 259.067 1425.18 242C1413.98 224.933 1395.58 216.4 1369.98 216.4C1352.91 216.4 1339.04 220.267 1328.38 228C1317.71 235.733 1309.84 246.8 1304.78 261.2C1299.71 275.6 1297.18 292.8 1297.18 312.8ZM1823.93 312.8C1823.93 334.933 1821.13 355.067 1815.53 373.2C1810.2 391.067 1801.93 406.533 1790.73 419.6C1779.8 432.667 1765.67 442.667 1748.33 449.6C1731.27 456.533 1711.13 460 1687.93 460C1664.73 460 1644.47 456.533 1627.13 449.6C1610.07 442.4 1595.93 432.4 1584.73 419.6C1573.8 406.533 1565.53 390.933 1559.93 372.8C1554.6 354.667 1551.93 334.533 1551.93 312.4C1551.93 282.8 1556.73 257.067 1566.33 235.2C1576.2 213.333 1591.13 196.4 1611.13 184.4C1631.4 172.133 1657.13 166 1688.33 166C1719.27 166 1744.73 172.133 1764.73 184.4C1784.73 196.4 1799.53 213.467 1809.13 235.6C1819 257.467 1823.93 283.2 1823.93 312.8ZM1615.53 312.8C1615.53 332.8 1618.07 350 1623.13 364.4C1628.2 378.8 1636.07 389.867 1646.73 397.6C1657.4 405.333 1671.13 409.2 1687.93 409.2C1705.27 409.2 1719.13 405.333 1729.53 397.6C1740.2 389.867 1747.93 378.8 1752.73 364.4C1757.8 350 1760.33 332.8 1760.33 312.8C1760.33 282.667 1754.73 259.067 1743.53 242C1732.33 224.933 1713.93 216.4 1688.33 216.4C1671.27 216.4 1657.4 220.267 1646.73 228C1636.07 235.733 1628.2 246.8 1623.13 261.2C1618.07 275.6 1615.53 292.8 1615.53 312.8ZM2003.89 456L1935.09 232H1933.49C1933.76 237.333 1934.16 245.333 1934.69 256C1935.23 266.667 1935.76 278.133 1936.29 290.4C1936.83 302.4 1937.09 313.333 1937.09 323.2V456H1883.09V170.4H1965.49L2033.09 388.8H2034.29L2105.89 170.4H2188.29V456H2131.89V320.8C2131.89 311.733 2132.03 301.333 2132.29 289.6C2132.83 277.867 2133.23 266.8 2133.49 256.4C2134.03 245.733 2134.43 237.733 2134.69 232.4H2133.09L2059.49 456H2003.89Z" fill="#333333"/>
</svg>
